<mxfile host="app.diagrams.net" modified="2024-03-21T00:23:43.435Z" agent="Mozilla/5.0 (Macintosh; Intel Mac OS X 10_15_7) AppleWebKit/537.36 (KHTML, like Gecko) Chrome/122.0.0.0 Safari/537.36" etag="V7SIHeSIlykI8IHTMkqK" version="24.0.7" type="github">
  <diagram name="Page-1" id="czhxPixgmotKa1HVFnm8">
    <mxGraphModel dx="2044" dy="713" grid="1" gridSize="10" guides="1" tooltips="1" connect="1" arrows="1" fold="1" page="1" pageScale="1" pageWidth="850" pageHeight="1100" math="0" shadow="0">
      <root>
        <mxCell id="0" />
        <mxCell id="1" parent="0" />
        <mxCell id="3mNI-sn1UXuY8dEpsdCJ-1" value="List Page&lt;br&gt;Detail Page - See the question and answer and be able to edit&lt;br&gt;IDentity" style="text;html=1;align=center;verticalAlign=middle;resizable=0;points=[];autosize=1;strokeColor=none;fillColor=none;" vertex="1" parent="1">
          <mxGeometry x="-130" y="50" width="350" height="60" as="geometry" />
        </mxCell>
        <mxCell id="3mNI-sn1UXuY8dEpsdCJ-4" value="&lt;h1 style=&quot;margin-top: 0px;&quot;&gt;DB Schema&lt;/h1&gt;&lt;p&gt;Question table&lt;br&gt;- user&lt;br&gt;- title&lt;br&gt;- question text&lt;br&gt;&lt;br&gt;Answers&lt;br&gt;- questionId FK&lt;br&gt;- asnwerTime&lt;br&gt;- answerText&lt;br&gt;- isActive&lt;br&gt;&lt;br&gt;User&lt;br&gt;- email&lt;br&gt;- username&lt;br&gt;&lt;br&gt;&lt;br&gt;&lt;/p&gt;" style="text;html=1;whiteSpace=wrap;overflow=hidden;rounded=0;" vertex="1" parent="1">
          <mxGeometry x="550" y="360" width="180" height="290" as="geometry" />
        </mxCell>
        <mxCell id="3mNI-sn1UXuY8dEpsdCJ-5" value="&lt;br&gt;&lt;b&gt;Backend Routes&lt;/b&gt;&lt;br&gt;&lt;br&gt;/questions&lt;br&gt;- POST(title, text)&lt;br&gt;- DELETE&lt;br&gt;- GET(pageNumber, id, pageLength)&lt;br&gt;&lt;span style=&quot;white-space: pre;&quot;&gt;&#x9;&lt;/span&gt;- QuestionDetail&lt;br&gt;&lt;span style=&quot;white-space: pre;&quot;&gt;&#x9;&lt;/span&gt;&lt;span style=&quot;white-space: pre;&quot;&gt;&#x9;&lt;/span&gt;- id&lt;br&gt;&lt;span style=&quot;white-space: pre;&quot;&gt;&#x9;&lt;/span&gt;&lt;span style=&quot;white-space: pre;&quot;&gt;&#x9;&lt;/span&gt;- title&lt;br&gt;&lt;span style=&quot;white-space: pre;&quot;&gt;&#x9;&lt;/span&gt;&lt;span style=&quot;white-space: pre;&quot;&gt;&#x9;&lt;/span&gt;- questionText&lt;br&gt;&lt;span style=&quot;white-space: pre;&quot;&gt;&#x9;&lt;/span&gt;&lt;span style=&quot;white-space: pre;&quot;&gt;&#x9;&lt;/span&gt;- latestAnswer&lt;br&gt;&lt;span style=&quot;white-space: pre;&quot;&gt;&#x9;&lt;/span&gt;- QuestListDetail&lt;br&gt;&lt;span style=&quot;white-space: pre;&quot;&gt;&#x9;&lt;/span&gt;&lt;span style=&quot;white-space: pre;&quot;&gt;&#x9;&lt;/span&gt;- id&lt;br&gt;&lt;span style=&quot;white-space: pre;&quot;&gt;&#x9;&lt;/span&gt;&lt;span style=&quot;white-space: pre;&quot;&gt;&#x9;&lt;/span&gt;- title&lt;br&gt;&lt;div&gt;&lt;br&gt;/answer&lt;br&gt;- POST&lt;br&gt;- questionId, answerText&lt;/div&gt;" style="whiteSpace=wrap;html=1;aspect=fixed;align=left;" vertex="1" parent="1">
          <mxGeometry x="160" y="350" width="280" height="280" as="geometry" />
        </mxCell>
        <mxCell id="3mNI-sn1UXuY8dEpsdCJ-6" value="&lt;b&gt;UI Components&lt;/b&gt;&lt;br&gt;&lt;br&gt;List&lt;br&gt;- Fetch and display list of questions&lt;br&gt;&lt;br&gt;Details&lt;br&gt;- given a question ID&lt;br&gt;- Display the questions&lt;br&gt;- Display the latest answer&lt;br&gt;&lt;br&gt;Login Page&lt;br&gt;- email magic&lt;br&gt;- google/facebook/etc&lt;br&gt;- github" style="whiteSpace=wrap;html=1;aspect=fixed;align=left;" vertex="1" parent="1">
          <mxGeometry x="-140" y="380" width="200" height="200" as="geometry" />
        </mxCell>
        <mxCell id="3mNI-sn1UXuY8dEpsdCJ-7" value="&lt;b&gt;Platform&lt;/b&gt;&lt;br&gt;- Host for the UI files (bucket with CDN)&lt;br&gt;- Serverless functions for the backend api&lt;br&gt;- Domain - register it with file provider&lt;br&gt;- Database - choose the same database provider as the cloud I&#39;m choosing&lt;br&gt;- Auth - probably going to come with the hosting provider" style="whiteSpace=wrap;html=1;aspect=fixed;align=left;" vertex="1" parent="1">
          <mxGeometry x="170" y="90" width="240" height="240" as="geometry" />
        </mxCell>
      </root>
    </mxGraphModel>
  </diagram>
</mxfile>
